# xmcd
#
# Track frame offsets: 
#        150
#        17932
#        35872
#        56536
#        74561
#        92319
#        110281
#        128939
#        148140
#        167487
#
# Disc length: 2457 seconds
#
# Revision: 0
# Processed by: cddbd v1.5.2PL0 Copyright (c) Steve Scherf et al.
# Submitted via: ExactAudioCopy v0.95b3
#
DISCID=8c09970a
DTITLE=Tai - 03 Khon Glai Muea Glai Baan
DYEAR=1900
DGENRE=Mor lam
TTITLE0=Khon glai muea glai baan
TTITLE1=OK naw
TTITLE2=Hawm glin baan gert
TTITLE3=Hai tai pai gap jai
TTITLE4=Gammagon gaem daeng
TTITLE5=Sao na pane jon
TTITLE6=Puean gan rong-ngan gao
TTITLE7=Ik khon ti khit hawt
TTITLE8=Prae wa sanya hak
TTITLE9=Khaw hai khwamdi khum khrawng
EXTD=
EXTT0=
EXTT1=
EXTT2=
EXTT3=
EXTT4=
EXTT5=
EXTT6=
EXTT7=
EXTT8=
EXTT9=
PLAYORDER=
